<?xml version="1.0" encoding="utf-8"?>
<!-- Generator: Adobe Illustrator 16.0.0, SVG Export Plug-In . SVG Version: 6.00 Build 0)  -->
<!DOCTYPE svg PUBLIC "-//W3C//DTD SVG 1.1//EN" "http://www.w3.org/Graphics/SVG/1.1/DTD/svg11.dtd">
<svg version="1.1" id="Layer_1" xmlns:sketch="http://www.bohemiancoding.com/sketch/ns"
	 xmlns="http://www.w3.org/2000/svg" xmlns:xlink="http://www.w3.org/1999/xlink" x="0px" y="0px" width="50px" height="50px"
	 viewBox="0 0 50 50" enable-background="new 0 0 50 50" xml:space="preserve">
<title></title>
<g id="Page-1">
	<g id="Mail">
		<path id="Oval-1" fill="#FFFFFF" d="M25,0C11.193,0,0,11.193,0,25c0,13.807,11.193,25,25,25c13.807,0,25-11.193,25-25
			C50,11.193,38.807,0,25,0z M25,3C12.85,3,3,12.85,3,25s9.85,22,22,22s22-9.85,22-22S37.15,3,25,3z M37,31.965V17l-8.737,8.464
			L37,31.965z M13,31.965l8.737-6.501L13,17V31.965z M22.914,26.605L13,33h24l-9.914-6.395L25,28.625L22.914,26.605z M13.72,17
			L25,26.059L36.279,17H13.72z"/>
	</g>
</g>
</svg>
