<?xml version="1.0" encoding="iso-8859-1"?>
<!-- Generator: Adobe Illustrator 19.0.0, SVG Export Plug-In . SVG Version: 6.00 Build 0)  -->
<svg version="1.1" id="Capa_1" xmlns="http://www.w3.org/2000/svg" xmlns:xlink="http://www.w3.org/1999/xlink" x="0px" y="0px"
	 viewBox="0 0 479.898 479.898" style="enable-background:new 0 0 479.898 479.898;" xml:space="preserve">
<g>
	<g>
		<path d="M455.895,71.949h-24.808c-1.04-5.096-3.072-9.832-5.856-14.024l17.576-17.576c3.128-3.128,3.128-8.184,0-11.312
			s-8.184-3.128-11.312,0l-17.576,17.576c-4.192-2.784-8.928-4.816-14.024-5.856V15.949c0-4.424-3.576-8-8-8s-8,3.576-8,8v24.808
			c-5.096,1.04-9.832,3.072-14.024,5.856l-17.576-17.576c-3.128-3.128-8.184-3.128-11.312,0c-3.128,3.128-3.128,8.184,0,11.312
			l17.576,17.576c-2.784,4.192-4.816,8.928-5.856,14.024h-24.808c-4.424,0-8,3.576-8,8s3.576,8,8,8h24.808
			c1.04,5.096,3.072,9.832,5.856,14.024l-17.576,17.576c-3.128,3.128-3.128,8.184,0,11.312c1.56,1.56,3.608,2.344,5.656,2.344
			c2.048,0,4.096-0.784,5.656-2.344l17.576-17.576c4.192,2.784,8.928,4.816,14.024,5.856v24.808c0,4.424,3.576,8,8,8s8-3.576,8-8
			v-24.808c5.096-1.04,9.832-3.072,14.024-5.856l17.576,17.576c1.56,1.56,3.608,2.344,5.656,2.344c2.048,0,4.096-0.784,5.656-2.344
			c3.128-3.128,3.128-8.184,0-11.312l-17.576-17.576c2.784-4.192,4.816-8.928,5.856-14.024h24.808c4.424,0,8-3.576,8-8
			S460.319,71.949,455.895,71.949z M391.895,103.949c-13.232,0-24-10.768-24-24s10.768-24,24-24s24,10.768,24,24
			S405.127,103.949,391.895,103.949z"/>
	</g>
</g>
<g>
	<g>
		<path d="M479.159,460.597l-70.72-153.28l-25.28-54.72c-1.312-2.832-4.144-4.648-7.264-4.648s-5.952,1.816-7.264,4.648
			l-25.28,54.72l-39.368,85.008L199.895,163.709c0-0.008,0-0.016,0-0.024l-24.832-55.04c-1.304-2.864-4.088-4.696-7.232-4.696
			c-3.144,0-5.832,1.832-7.136,4.696l-24.8,55.04c0,0.008,0,0.016,0,0.024L0.743,460.637c-1.128,2.48-0.976,5.36,0.488,7.64
			c1.472,2.288,3.944,3.672,6.664,3.672h320h144c2.728,0,5.264-1.392,6.744-3.688C480.111,465.965,480.303,463.077,479.159,460.597z
			 M375.895,275.021l15.68,33.936l-15.68,15.68l-15.68-15.68L375.895,275.021z M167.895,131.317l15.392,33.928l-15.392,15.392
			l-15.392-15.392L167.895,131.317z M20.327,455.949l125.12-275.144l16.8,16.8c1.552,1.56,3.6,2.344,5.648,2.344
			c2.048,0,4.096-0.784,5.656-2.344l16.8-16.8l106.408,234.008c0.008,0.016,0,0.032,0.008,0.048l17.632,38.752l1.064,2.336H20.327z
			 M333.047,455.949l-20.184-44.392l40.208-87.12l17.168,17.168c1.56,1.56,3.608,2.344,5.656,2.344c2.048,0,4.096-0.784,5.656-2.344
			l17.168-17.168l60.68,131.512H333.047z"/>
	</g>
</g>
<g>
</g>
<g>
</g>
<g>
</g>
<g>
</g>
<g>
</g>
<g>
</g>
<g>
</g>
<g>
</g>
<g>
</g>
<g>
</g>
<g>
</g>
<g>
</g>
<g>
</g>
<g>
</g>
<g>
</g>
</svg>
