<?xml version="1.0" encoding="utf-8"?>
<!-- Generator: Adobe Illustrator 16.0.0, SVG Export Plug-In . SVG Version: 6.00 Build 0)  -->
<!DOCTYPE svg PUBLIC "-//W3C//DTD SVG 1.1//EN" "http://www.w3.org/Graphics/SVG/1.1/DTD/svg11.dtd">
<svg version="1.1" id="Layer_1" xmlns="http://www.w3.org/2000/svg" xmlns:xlink="http://www.w3.org/1999/xlink" x="0px" y="0px"
	 width="40px" height="40px" viewBox="0 0 40 40" enable-background="new 0 0 40 40" xml:space="preserve">
<g>
	<g>
		<g>
			<g>
				<path fill="#FFFFFF" d="M20,2c9.925,0,18,8.075,18,18s-8.075,18-18,18S2,29.925,2,20S10.075,2,20,2 M20,0C8.955,0,0,8.954,0,20
					c0,11.047,8.955,20,20,20c11.047,0,20-8.953,20-20C40,8.954,31.047,0,20,0L20,0z"/>
			</g>
		</g>
	</g>
	<path fill="#FFFFFF" d="M14.371,9.793c1.207-0.228,1.998,1.133,2.6,2.072c0.586,0.912,1.307,1.982,1.016,3.169
		c-0.162,0.666-0.764,1.029-1.219,1.422c-0.449,0.388-1.133,0.744-1.299,1.34c-0.271,0.967,0.322,1.982,0.689,2.56
		c0.834,1.306,1.842,2.483,3.129,3.535c0.623,0.51,1.488,1.19,2.355,1.016c1.295-0.262,1.637-1.859,3.047-2.072
		c1.342-0.203,2.25,0.77,3.008,1.422c0.729,0.631,1.908,1.439,1.828,2.52c-0.047,0.621-0.545,1.006-0.978,1.381
		c-0.438,0.384-0.823,0.814-1.258,1.097c-1.052,0.687-2.34,1.022-3.819,0.976c-1.451-0.045-2.607-0.537-3.657-1.097
		c-2.051-1.094-3.672-2.633-5.199-4.348c-1.502-1.687-2.889-3.683-3.656-5.889c-0.957-2.756-0.451-5.587,1.098-7.353
		c0.262-0.3,0.676-0.613,1.055-0.935C13.49,10.284,13.84,9.893,14.371,9.793z"/>
</g>
</svg>
